<svg xmlns="http://www.w3.org/2000/svg" xmlns:xlink="http://www.w3.org/1999/xlink" width="537" height="739" viewBox="0 0 537 739"><defs><filter id="a" x="0" y="0" width="537" height="739" filterUnits="userSpaceOnUse"><feOffset dy="3" input="SourceAlpha"/><feGaussianBlur stdDeviation="10" result="b"/><feFlood flood-opacity="0.2"/><feComposite operator="in" in2="b"/><feComposite in="SourceGraphic"/></filter></defs><g transform="translate(-287 -254)"><g transform="translate(-140 58)"><g transform="matrix(1, 0, 0, 1, 427, 196)" filter="url(#a)"><rect width="477" height="679" rx="51" transform="translate(30 27)" fill="#fff"/></g><path d="M131.863,678.5a50.5,50.5,0,0,1-50.5-50.5V586.945c23.585-25.669,14.217-23.649,47.65-22.633,33.891,1.031,39.325,37.1,86.927,27.823s39.841-59.512,103.485-64.922c26.945-2.29,47.382,12.137,66.554,26.564,26.109,19.649,49.872,39.3,84.533,16.717,59.31-38.639,76.394-182.341,88.851-199.3V628a50.5,50.5,0,0,1-50.5,50.5Z" transform="translate(375.138 223)" fill="#cc83e1"/></g><ellipse cx="26.5" cy="23.5" rx="26.5" ry="23.5" transform="translate(330 493)" fill="#cc83e1" opacity="0.2"/><circle cx="6.5" cy="6.5" r="6.5" transform="translate(485 308)" fill="#cc83e1" opacity="0.2"/><circle cx="16" cy="16" r="16" transform="translate(418 821)" fill="#cc83e1" opacity="0.2"/><circle cx="23.5" cy="23.5" r="23.5" transform="translate(690 449)" fill="#cc83e1" opacity="0.2"/></g></svg>